# xmcd CD database file
#
# Track frame offsets:
#	150
#	21628
#	47853
#	75649
#	105262
#	127128
#	151767
#	174566
#	195486
#	227332
#	245305
#
# Disc length: 3581 seconds
#
# Revision: 6
# Processed by: cddbd v1.5.2PL0 Copyright (c) Steve Scherf et al.
# Submitted via: CDex 1.81
#
DISCID=810dfb0b
DTITLE=Mike Oldfield - Man On The Rocks
DYEAR=2014
DGENRE=Pop
TTITLE0=Sailing
TTITLE1=Moonshine
TTITLE2=Man On The Rocks
TTITLE3=Castaway
TTITLE4=Minutes
TTITLE5=Dreaming In The Wind
TTITLE6=Nuclear
TTITLE7=Chariots
TTITLE8=Following The Angels
TTITLE9=Irene
TTITLE10=I Give Myself Away
EXTD=YEAR: 2014
EXTT0=
EXTT1=
EXTT2=
EXTT3=
EXTT4=
EXTT5=
EXTT6=
EXTT7=
EXTT8=
EXTT9=
EXTT10=
PLAYORDER=
